<svg width="793" height="760" viewBox="0 0 793 760" fill="none" xmlns="http://www.w3.org/2000/svg">
<g clip-path="url(#clip0_2_20)">
<path d="M788.33 405.496C788.46 403.858 788.595 402.228 788.816 400.604C791.19 383.137 802.267 251.844 630.178 86.719C445.223 -90.7516 243.097 108.58 208.183 160.682C173.268 212.785 163.097 292.798 136.148 240.146C119.487 207.597 162.913 166.84 101.402 183.865C61.936 194.788 -11.3673 291.448 48.723 457.526C108.813 623.604 277.591 750.299 439.791 741.058C648.372 729.174 771.189 584.2 761.44 573.422C751.691 562.643 674.004 594.797 691.072 572.402C707.874 550.356 783.428 467.119 788.33 405.496Z" fill="#283996"/>
<path opacity="0.8" d="M788.33 405.496C788.46 403.858 788.595 402.228 788.816 400.604C791.19 383.137 802.267 251.844 630.178 86.719C445.223 -90.7516 243.097 108.58 208.183 160.682C173.268 212.785 163.097 292.798 136.148 240.146C119.487 207.597 162.913 166.84 101.402 183.865C61.936 194.788 -11.3673 291.448 48.723 457.526C108.813 623.604 277.591 750.299 439.791 741.058C648.372 729.174 771.189 584.2 761.44 573.422C751.691 562.643 674.004 594.797 691.072 572.402C707.874 550.356 783.428 467.119 788.33 405.496Z" fill="white"/>
<path d="M701.884 613.065H71.7391V578.235C71.7391 567.661 80.6841 559.088 91.7179 559.088H681.905C692.939 559.088 701.884 567.661 701.884 578.235V613.065Z" fill="white" stroke="#263238" stroke-miterlimit="10"/>
<path d="M13 701.855H793.042" stroke="#263238" stroke-miterlimit="10"/>
<path d="M539.282 573.154C539.282 575.703 537.125 577.769 534.467 577.769C531.808 577.769 529.652 575.703 529.652 573.154C529.652 570.605 531.808 568.539 534.467 568.539C537.125 568.538 539.282 570.605 539.282 573.154Z" fill="#283996" stroke="#263238" stroke-miterlimit="10" stroke-linecap="round" stroke-linejoin="round"/>
<path d="M554.605 573.154C554.605 575.703 552.448 577.769 549.79 577.769C547.13 577.769 544.973 575.703 544.973 573.154C544.973 570.605 547.13 568.539 549.79 568.539C552.449 568.538 554.605 570.605 554.605 573.154Z" fill="white" stroke="#263238" stroke-miterlimit="10"/>
<path d="M569.927 573.154C569.927 575.703 567.772 577.769 565.112 577.769C562.452 577.769 560.297 575.703 560.297 573.154C560.297 570.605 562.452 568.539 565.112 568.539C567.772 568.538 569.927 570.605 569.927 573.154Z" fill="#283996" stroke="#263238" stroke-miterlimit="10" stroke-linecap="round" stroke-linejoin="round"/>
<path d="M585.251 573.154C585.251 575.703 583.096 577.769 580.436 577.769C577.776 577.769 575.621 575.703 575.621 573.154C575.621 570.605 577.776 568.539 580.436 568.539C583.096 568.539 585.251 570.605 585.251 573.154Z" fill="#263238" stroke="#263238" stroke-miterlimit="10" stroke-linecap="round" stroke-linejoin="round"/>
<path d="M652.589 573.154C652.589 575.703 650.434 577.769 647.774 577.769C645.115 577.769 642.959 575.703 642.959 573.154C642.959 570.605 645.115 568.539 647.774 568.539C650.434 568.539 652.589 570.605 652.589 573.154Z" fill="#283996" stroke="#263238" stroke-miterlimit="10" stroke-linecap="round" stroke-linejoin="round"/>
<path d="M667.912 573.154C667.912 575.703 665.756 577.769 663.097 577.769C660.437 577.769 658.282 575.703 658.282 573.154C658.282 570.605 660.437 568.539 663.097 568.539C665.756 568.539 667.912 570.605 667.912 573.154Z" fill="#263238" stroke="#263238" stroke-miterlimit="10" stroke-linecap="round" stroke-linejoin="round"/>
<path d="M652.589 586.781C652.589 589.33 650.434 591.396 647.774 591.396C645.115 591.396 642.959 589.33 642.959 586.781C642.959 584.232 645.115 582.166 647.774 582.166C650.434 582.166 652.589 584.232 652.589 586.781Z" fill="#283996" stroke="#263238" stroke-miterlimit="10" stroke-linecap="round" stroke-linejoin="round"/>
<path d="M667.912 586.781C667.912 589.33 665.756 591.396 663.097 591.396C660.437 591.396 658.282 589.33 658.282 586.781C658.282 584.232 660.437 582.166 663.097 582.166C665.756 582.166 667.912 584.232 667.912 586.781Z" fill="#263238" stroke="#263238" stroke-miterlimit="10" stroke-linecap="round" stroke-linejoin="round"/>
<path d="M152.758 573.154C152.758 575.703 150.601 577.769 147.943 577.769C145.283 577.769 143.128 575.703 143.128 573.154C143.128 570.605 145.283 568.539 147.943 568.539C150.603 568.538 152.758 570.605 152.758 573.154Z" fill="#283996" stroke="#263238" stroke-miterlimit="10" stroke-linecap="round" stroke-linejoin="round"/>
<path d="M168.082 573.154C168.082 575.703 165.925 577.769 163.267 577.769C160.607 577.769 158.452 575.703 158.452 573.154C158.452 570.605 160.607 568.539 163.267 568.539C165.925 568.538 168.082 570.605 168.082 573.154Z" fill="#263238" stroke="#263238" stroke-miterlimit="10" stroke-linecap="round" stroke-linejoin="round"/>
<path d="M152.758 586.781C152.758 589.33 150.601 591.396 147.943 591.396C145.283 591.396 143.128 589.33 143.128 586.781C143.128 584.232 145.283 582.166 147.943 582.166C150.603 582.166 152.758 584.232 152.758 586.781Z" fill="#283996" stroke="#263238" stroke-miterlimit="10" stroke-linecap="round" stroke-linejoin="round"/>
<path d="M168.082 586.781C168.082 589.33 165.925 591.396 163.267 591.396C160.607 591.396 158.452 589.33 158.452 586.781C158.452 584.232 160.607 582.166 163.267 582.166C165.925 582.166 168.082 584.232 168.082 586.781Z" fill="#263238" stroke="#263238" stroke-miterlimit="10" stroke-linecap="round" stroke-linejoin="round"/>
<path d="M617.211 562.664H610.205V592.874H617.211V562.664Z" fill="white" stroke="#263238" stroke-miterlimit="10"/>
<path d="M617.13 574.084H610.541V582.925H617.13V574.084Z" fill="#263238" stroke="#263238" stroke-miterlimit="10" stroke-linecap="round" stroke-linejoin="round"/>
<path d="M627.753 562.664H620.747V592.874H627.753V562.664Z" fill="white" stroke="#263238" stroke-miterlimit="10"/>
<path d="M627.67 567.456H621.082V576.296H627.67V567.456Z" fill="#263238" stroke="#263238" stroke-miterlimit="10" stroke-linecap="round" stroke-linejoin="round"/>
<path d="M638.293 562.664H631.288V592.874H638.293V562.664Z" fill="white" stroke="#263238" stroke-miterlimit="10"/>
<path d="M638.212 578.821H631.624V587.661H638.212V578.821Z" fill="#263238" stroke="#263238" stroke-miterlimit="10" stroke-linecap="round" stroke-linejoin="round"/>
<path d="M513.296 588.622H260.326V553.791C260.326 543.216 269.271 534.643 280.304 534.643H493.315C504.349 534.643 513.294 543.216 513.294 553.791V588.622H513.296Z" fill="white" stroke="#263238" stroke-miterlimit="10"/>
<path d="M288.306 575.641C288.306 578.19 286.15 580.255 283.491 580.255C280.831 580.255 278.676 578.19 278.676 575.641C278.676 573.092 280.831 571.026 283.491 571.026C286.15 571.026 288.306 573.092 288.306 575.641Z" fill="white" stroke="#263238" stroke-miterlimit="10"/>
<path d="M500.919 556.519C500.919 551.286 496.492 547.043 491.031 547.043C485.571 547.043 481.144 551.286 481.144 556.519C481.144 561.752 485.571 565.995 491.031 565.995C496.492 565.995 500.919 561.752 500.919 556.519Z" fill="#263238"/>
<path d="M491.135 542.582V545.417" stroke="#263238" stroke-width="0.5" stroke-miterlimit="10"/>
<path d="M491.135 567.621V570.456" stroke="#263238" stroke-width="0.5" stroke-miterlimit="10"/>
<path d="M476.593 556.519H479.55" stroke="#263238" stroke-width="0.5" stroke-miterlimit="10"/>
<path d="M502.719 556.519H505.677" stroke="#263238" stroke-width="0.5" stroke-miterlimit="10"/>
<path d="M501.417 546.665L499.326 548.668" stroke="#263238" stroke-width="0.5" stroke-miterlimit="10"/>
<path d="M482.943 564.37L480.853 566.373" stroke="#263238" stroke-width="0.5" stroke-miterlimit="10"/>
<path d="M480.853 546.665L482.943 548.668" stroke="#263238" stroke-width="0.5" stroke-miterlimit="10"/>
<path d="M499.326 564.37L501.417 566.373" stroke="#263238" stroke-width="0.5" stroke-miterlimit="10"/>
<path d="M294.459 551.874H272.999V566.499H294.459V551.874Z" fill="#283996" stroke="#263238" stroke-miterlimit="10" stroke-linecap="round" stroke-linejoin="round"/>
<path d="M466.997 468.315H306.624V579.015H466.997V468.315Z" fill="#263238" stroke="#263238" stroke-miterlimit="10"/>
<path d="M458.022 476.5H315.601V570.83H458.022V476.5Z" fill="#283996" stroke="#263238" stroke-miterlimit="10" stroke-linecap="round" stroke-linejoin="round"/>
<path d="M447.756 536.593H329.746V542.783H447.756V536.593Z" fill="white" stroke="#263238" stroke-miterlimit="10"/>
<path d="M394.328 536.593H329.746V542.783H394.328V536.593Z" fill="#263238"/>
<path d="M421.395 567.013H352.226L343.581 590.389H430.042L421.395 567.013Z" fill="white" stroke="#263238" stroke-miterlimit="10" stroke-linecap="round" stroke-linejoin="round"/>
<path d="M739.134 596.258H34.863V701.857H739.134V596.258Z" fill="#283996" stroke="#263238" stroke-miterlimit="10" stroke-linecap="round" stroke-linejoin="round"/>
<path d="M34.863 596.258L216.249 689.905H565.712L739.134 596.258H34.863Z" fill="#B8B8B8" stroke="#263238" stroke-miterlimit="10" stroke-linecap="round" stroke-linejoin="round"/>
<path d="M177.754 586.791V641.682H267.777C274.393 641.682 280.557 638.459 284.138 633.127L294.32 617.97C297.907 612.628 304.082 609.4 310.711 609.4H462.915C469.543 609.4 475.717 612.628 479.306 617.97L489.488 633.127C493.07 638.459 499.233 641.682 505.85 641.682H595.872V586.791H177.754Z" fill="white" stroke="#263238" stroke-miterlimit="10"/>
<path d="M595.871 586.791H177.754V604.825H595.871V586.791Z" fill="#263238" stroke="#263238" stroke-miterlimit="10"/>
<path d="M596.859 599.143H176.764C174.074 599.143 171.893 597.053 171.893 594.475V591.461C171.893 588.883 174.074 586.793 176.764 586.793H596.861C599.55 586.793 601.731 588.883 601.731 591.461V594.475C601.73 597.053 599.549 599.143 596.859 599.143Z" fill="white" stroke="#263238" stroke-miterlimit="10"/>
<path d="M204.939 668.063H182.551L177.754 641.682H209.737L204.939 668.063Z" fill="white" stroke="#263238" stroke-miterlimit="10"/>
<path d="M590.986 668.063H568.596L563.799 641.682H595.784L590.986 668.063Z" fill="white" stroke="#263238" stroke-miterlimit="10"/>
<path d="M267.053 630.771H192.25C190.619 630.771 189.297 629.505 189.297 627.941V612.014C189.297 610.452 190.619 609.184 192.25 609.184H267.053C268.684 609.184 270.007 610.45 270.007 612.014V627.941C270.007 629.503 268.685 630.771 267.053 630.771Z" fill="#263238" stroke="#263238" stroke-miterlimit="10"/>
<path d="M580.398 630.771H505.594C503.964 630.771 502.641 629.505 502.641 627.941V612.014C502.641 610.452 503.962 609.184 505.594 609.184H580.398C582.028 609.184 583.351 610.45 583.351 612.014V627.941C583.351 629.503 582.028 630.771 580.398 630.771Z" fill="#263238" stroke="#263238" stroke-miterlimit="10"/>
<path d="M221.15 569.24H189.595C188.375 569.24 187.385 568.292 187.385 567.123C187.385 565.954 188.375 565.005 189.595 565.005H221.15C222.369 565.005 223.359 565.954 223.359 567.123C223.359 568.293 222.371 569.24 221.15 569.24Z" fill="#263238" stroke="#263238" stroke-miterlimit="10" stroke-linecap="round" stroke-linejoin="round"/>
<path d="M221.15 579.22H189.595C188.375 579.22 187.385 578.272 187.385 577.103C187.385 575.934 188.375 574.986 189.595 574.986H221.15C222.369 574.986 223.359 575.934 223.359 577.103C223.359 578.273 222.371 579.22 221.15 579.22Z" fill="#263238" stroke="#263238" stroke-miterlimit="10" stroke-linecap="round" stroke-linejoin="round"/>
<path d="M344.36 522.834V504.988H340.972V501.793H352.193V504.988H348.859V522.834H344.36Z" fill="#263238"/>
<path d="M354.171 522.834V501.793H363.739V504.754H358.643V510.339H362.573V513.327H358.643V519.925H363.793V522.834H354.171Z" fill="#263238"/>
<path d="M371.734 523.12C370.38 523.12 369.249 522.882 368.346 522.404C367.442 521.928 366.762 521.21 366.301 520.249C365.841 519.287 365.573 518.063 365.501 516.572L369.35 515.949C369.385 516.815 369.482 517.539 369.636 518.119C369.788 518.7 370.024 519.132 370.34 519.417C370.656 519.703 371.049 519.845 371.518 519.845C372.096 519.845 372.489 519.673 372.698 519.325C372.905 518.978 373.009 518.581 373.009 518.13C373.009 517.247 372.787 516.508 372.346 515.909C371.902 515.312 371.32 514.712 370.597 514.104L368.32 512.207C367.506 511.548 366.843 510.804 366.327 509.972C365.812 509.141 365.555 508.119 365.555 506.906C365.555 505.175 366.083 503.845 367.141 502.919C368.199 501.994 369.649 501.53 371.492 501.53C372.594 501.53 373.498 501.703 374.202 502.05C374.906 502.397 375.453 502.859 375.842 503.439C376.23 504.02 376.5 504.652 376.656 505.336C376.808 506.02 376.903 506.698 376.939 507.374L373.117 507.92C373.081 507.28 373.022 506.716 372.941 506.231C372.86 505.748 372.697 505.367 372.453 505.088C372.208 504.812 371.842 504.673 371.355 504.673C370.83 504.673 370.442 504.86 370.189 505.233C369.936 505.605 369.81 506.017 369.81 506.466C369.81 507.21 369.986 507.821 370.338 508.297C370.691 508.774 371.173 509.271 371.788 509.79L374.01 511.659C374.932 512.422 375.721 513.292 376.383 514.271C377.043 515.248 377.372 516.457 377.372 517.894C377.372 518.881 377.138 519.773 376.668 520.57C376.199 521.366 375.544 521.991 374.703 522.439C373.863 522.895 372.873 523.12 371.734 523.12Z" fill="#263238"/>
<path d="M381.789 522.834V504.988H378.402V501.793H389.623V504.988H386.289V522.834H381.789Z" fill="#263238"/>
<path d="M391.656 522.834V501.793H396.101V522.834H391.656Z" fill="#263238"/>
<path d="M399.461 522.834V501.793H402.577L407.456 512.755V501.793H411.142V522.834H408.16L403.281 511.197V522.834H399.461Z" fill="#263238"/>
<path d="M420.088 523.146C418.605 523.146 417.432 522.848 416.564 522.249C415.697 521.652 415.076 520.804 414.708 519.703C414.337 518.604 414.152 517.327 414.152 515.873V508.832C414.152 507.326 414.342 506.026 414.721 504.935C415.1 503.844 415.765 503.004 416.713 502.416C417.662 501.828 418.949 501.533 420.575 501.533C422.147 501.533 423.389 501.784 424.302 502.286C425.214 502.789 425.869 503.498 426.267 504.415C426.665 505.333 426.864 506.425 426.864 507.688V508.91H422.5V507.428C422.5 506.874 422.464 506.385 422.393 505.961C422.32 505.537 422.153 505.204 421.891 504.961C421.628 504.719 421.208 504.597 420.631 504.597C420.034 504.597 419.601 504.745 419.33 505.038C419.059 505.333 418.888 505.71 418.815 506.169C418.742 506.628 418.707 507.116 418.707 507.636V516.963C418.707 517.552 418.761 518.078 418.869 518.546C418.976 519.015 419.181 519.378 419.479 519.638C419.777 519.898 420.205 520.029 420.767 520.029C421.327 520.029 421.76 519.89 422.067 519.614C422.374 519.337 422.586 518.96 422.705 518.484C422.822 518.008 422.881 517.467 422.881 516.861V514.626H420.74V512.029H426.921V522.834H423.993L423.722 520.937C423.431 521.579 422.998 522.108 422.421 522.523C421.841 522.938 421.064 523.146 420.088 523.146Z" fill="#263238"/>
<path d="M429.601 522.834V519.015H433.504V522.834H429.601Z" fill="#263238"/>
<path d="M435.889 522.834V519.015H439.793V522.834H435.889Z" fill="#263238"/>
<path d="M442.178 522.834V519.015H446.081V522.834H442.178Z" fill="#263238"/>
<path d="M531.455 484.787L512.568 472.001V465.228L531.455 452.315V459.151L517.917 468.583L531.455 478.014V484.787Z" fill="#263238"/>
<path d="M537.202 487.066L551.599 435.798H557.742L543.279 487.066H537.202Z" fill="#263238"/>
<path d="M563.485 484.787V478.014L577.089 468.52L563.485 459.153V452.317L582.439 465.166V471.939L563.485 484.787Z" fill="#263238"/>
<path d="M683.001 161.105L635.857 239.362C634.885 240.975 636.1 242.99 638.043 242.99H732.33C734.273 242.99 735.488 240.975 734.516 239.362L687.372 161.105C686.401 159.492 683.973 159.492 683.001 161.105ZM687.677 168.498L727.905 234.562C729.046 236.434 727.655 238.8 725.415 238.8H644.958C642.718 238.8 641.327 236.434 642.468 234.562L682.696 168.498C683.816 166.659 686.557 166.659 687.677 168.498Z" fill="#283996" stroke="#263238" stroke-miterlimit="10" stroke-linecap="round" stroke-linejoin="round"/>
<path d="M689.437 187.755H680.938V219.251H689.437V187.755Z" fill="#283996" stroke="#263238" stroke-miterlimit="10" stroke-linecap="round" stroke-linejoin="round"/>
<path d="M689.437 224.138H680.938V231.197H689.437V224.138Z" fill="#283996" stroke="#263238" stroke-miterlimit="10" stroke-linecap="round" stroke-linejoin="round"/>
<path d="M251.473 129.933V116.24L233.148 113.504C231.995 108.002 229.803 102.863 226.787 98.271L237.884 83.711L227.781 74.0286L212.798 84.5166C208.078 81.5085 202.767 79.2923 197.066 78.0505L194.17 60.2361H179.884L177.029 77.7982C171.288 78.9032 165.925 81.0038 161.134 83.8949L145.942 73.2594L135.839 82.9418L146.782 97.2998C143.644 101.823 141.331 106.914 140.034 112.377L121.446 115.152V128.846L139.771 131.582C140.924 137.084 143.116 142.222 146.132 146.815L135.035 161.375L145.138 171.058L160.119 160.57C164.839 163.578 170.15 165.794 175.851 167.037L178.747 184.852H193.035L195.89 167.29C201.631 166.185 206.992 164.084 211.785 161.193L226.977 171.828L237.08 162.146L226.136 147.787C229.275 143.263 231.587 138.173 232.883 132.71L251.473 129.933ZM186.461 153.93C168.374 153.93 153.71 139.878 153.71 122.542C153.71 105.207 168.373 91.1544 186.461 91.1544C204.549 91.1544 219.212 105.207 219.212 122.542C219.212 139.876 204.549 153.93 186.461 153.93Z" fill="#283996" stroke="#263238" stroke-miterlimit="10" stroke-linecap="round" stroke-linejoin="round"/>
<path d="M180.999 226.08V212.388L162.674 209.652C161.521 204.15 159.329 199.012 156.313 194.419L167.41 179.859L157.307 170.176L142.326 180.664C137.606 177.656 132.294 175.44 126.594 174.197L123.698 156.382H109.41L106.555 173.944C100.814 175.049 95.453 177.15 90.6601 180.041L75.4678 169.406L65.365 179.088L76.3084 193.447C73.1697 197.971 70.8573 203.061 69.56 208.524L50.972 211.3V224.993L69.2967 227.729C70.4497 233.232 72.6416 238.369 75.6581 242.963L64.5609 257.523L74.6637 267.205L89.6467 256.717C94.3666 259.725 99.6781 261.942 105.378 263.185L108.273 280.999H122.561L125.416 263.437C131.157 262.332 136.518 260.232 141.311 257.341L156.503 267.976L166.606 258.294L155.662 243.934C158.801 239.411 161.113 234.32 162.411 228.857L180.999 226.08ZM115.985 250.078C97.897 250.078 83.2345 236.026 83.2345 218.69C83.2345 201.354 97.897 187.302 115.985 187.302C134.074 187.302 148.736 201.354 148.736 218.69C148.736 236.026 134.074 250.078 115.985 250.078Z" fill="#263238" stroke="#263238" stroke-miterlimit="10" stroke-linecap="round" stroke-linejoin="round"/>
<path d="M594.654 404.901H192.399C186.551 404.901 181.811 400.357 181.811 394.753V137.084C181.811 131.48 186.551 126.937 192.399 126.937H594.654C600.502 126.937 605.243 131.48 605.243 137.084V394.753C605.243 400.357 600.502 404.901 594.654 404.901Z" fill="white" stroke="#263238" stroke-miterlimit="10"/>
<path d="M605.243 149.613V138.297C605.243 132.024 599.936 126.938 593.39 126.938H193.663C187.117 126.938 181.811 132.024 181.811 138.297V149.613H605.243Z" fill="#283996" stroke="#263238" stroke-miterlimit="10" stroke-linecap="round" stroke-linejoin="round"/>
<path d="M563.865 139.069C563.865 137.15 562.241 135.593 560.238 135.593C558.235 135.593 556.611 137.15 556.611 139.069C556.611 140.989 558.235 142.546 560.238 142.546C562.243 142.546 563.865 140.989 563.865 139.069Z" fill="#283996" stroke="#263238" stroke-miterlimit="10" stroke-linecap="round" stroke-linejoin="round"/>
<path d="M578.896 139.069C578.896 137.15 577.272 135.593 575.269 135.593C573.266 135.593 571.642 137.15 571.642 139.069C571.642 140.989 573.266 142.546 575.269 142.546C577.27 142.546 578.896 140.989 578.896 139.069Z" fill="#263238" stroke="#263238" stroke-miterlimit="10" stroke-linecap="round" stroke-linejoin="round"/>
<path d="M593.925 139.069C593.925 137.15 592.301 135.593 590.298 135.593C588.295 135.593 586.67 137.15 586.67 139.069C586.67 140.989 588.295 142.546 590.298 142.546C592.301 142.546 593.925 140.989 593.925 139.069Z" fill="white" stroke="#263238" stroke-miterlimit="10"/>
<path d="M415.853 171.392H205.033V383.955H415.853V171.392Z" fill="#263238" stroke="#263238" stroke-miterlimit="10" stroke-linecap="round" stroke-linejoin="round"/>
<path d="M415.853 171.392H205.033V182.237H415.853V171.392Z" fill="#828282" stroke="#263238" stroke-miterlimit="10" stroke-linecap="round" stroke-linejoin="round"/>
<path d="M225.307 193.353H219.335C218.522 193.353 217.864 192.722 217.864 191.941C217.864 191.161 218.522 190.53 219.335 190.53H225.307C226.12 190.53 226.78 191.161 226.78 191.941C226.78 192.721 226.12 193.353 225.307 193.353ZM226.78 198.482C226.78 197.702 226.122 197.071 225.307 197.071H219.335C218.522 197.071 217.864 197.702 217.864 198.482C217.864 199.261 218.522 199.894 219.335 199.894H225.307C226.12 199.894 226.78 199.261 226.78 198.482ZM226.78 205.022C226.78 204.242 226.122 203.612 225.307 203.612H219.335C218.522 203.612 217.864 204.242 217.864 205.022C217.864 205.802 218.522 206.434 219.335 206.434H225.307C226.12 206.434 226.78 205.803 226.78 205.022ZM226.78 211.563C226.78 210.783 226.122 210.151 225.307 210.151H219.335C218.522 210.151 217.864 210.781 217.864 211.563C217.864 212.342 218.522 212.975 219.335 212.975H225.307C226.12 212.975 226.78 212.344 226.78 211.563ZM226.78 218.103C226.78 217.324 226.122 216.691 225.307 216.691H219.335C218.522 216.691 217.864 217.322 217.864 218.103C217.864 218.883 218.522 219.515 219.335 219.515H225.307C226.12 219.515 226.78 218.885 226.78 218.103ZM226.78 224.645C226.78 223.866 226.122 223.235 225.307 223.235H219.335C218.522 223.235 217.864 223.866 217.864 224.645C217.864 225.425 218.522 226.057 219.335 226.057H225.307C226.12 226.057 226.78 225.427 226.78 224.645ZM226.78 231.187C226.78 230.408 226.122 229.775 225.307 229.775H219.335C218.522 229.775 217.864 230.406 217.864 231.187C217.864 231.967 218.522 232.6 219.335 232.6H225.307C226.12 232.598 226.78 231.967 226.78 231.187ZM226.78 237.728C226.78 236.948 226.122 236.316 225.307 236.316H219.335C218.522 236.316 217.864 236.947 217.864 237.728C217.864 238.508 218.522 239.139 219.335 239.139H225.307C226.12 239.139 226.78 238.508 226.78 237.728ZM249.12 191.941C249.12 191.161 248.462 190.53 247.649 190.53H231.973C231.159 190.53 230.501 191.161 230.501 191.941C230.501 192.721 231.159 193.353 231.973 193.353H247.649C248.461 193.353 249.12 192.721 249.12 191.941ZM249.12 198.482C249.12 197.702 248.462 197.071 247.649 197.071H231.973C231.159 197.071 230.501 197.702 230.501 198.482C230.501 199.261 231.159 199.894 231.973 199.894H247.649C248.461 199.894 249.12 199.261 249.12 198.482ZM249.12 205.022C249.12 204.242 248.462 203.612 247.649 203.612H231.973C231.159 203.612 230.501 204.242 230.501 205.022C230.501 205.802 231.159 206.434 231.973 206.434H247.649C248.461 206.434 249.12 205.803 249.12 205.022ZM249.12 211.563C249.12 210.783 248.462 210.151 247.649 210.151H231.973C231.159 210.151 230.501 210.781 230.501 211.563C230.501 212.342 231.159 212.975 231.973 212.975H247.649C248.461 212.975 249.12 212.344 249.12 211.563ZM249.12 218.103C249.12 217.324 248.462 216.691 247.649 216.691H231.973C231.159 216.691 230.501 217.322 230.501 218.103C230.501 218.883 231.159 219.515 231.973 219.515H247.649C248.461 219.515 249.12 218.885 249.12 218.103ZM267.889 224.645C267.889 223.866 267.231 223.235 266.416 223.235H250.74C249.926 223.235 249.266 223.866 249.266 224.645C249.266 225.425 249.925 226.057 250.74 226.057H266.416C267.229 226.057 267.889 225.427 267.889 224.645ZM267.889 231.187C267.889 230.408 267.231 229.775 266.416 229.775H250.74C249.926 229.775 249.266 230.406 249.266 231.187C249.266 231.967 249.925 232.6 250.74 232.6H266.416C267.229 232.598 267.889 231.967 267.889 231.187ZM267.889 237.728C267.889 236.948 267.231 236.316 266.416 236.316H250.74C249.926 236.316 249.266 236.947 249.266 237.728C249.266 238.508 249.925 239.139 250.74 239.139H266.416C267.229 239.139 267.889 238.508 267.889 237.728ZM256.02 191.941C256.02 191.038 255.255 190.306 254.313 190.306C253.371 190.306 252.607 191.037 252.607 191.941C252.607 192.844 253.371 193.577 254.313 193.577C255.255 193.577 256.02 192.844 256.02 191.941ZM261.138 191.941C261.138 191.038 260.375 190.306 259.431 190.306C258.489 190.306 257.725 191.037 257.725 191.941C257.725 192.844 258.489 193.577 259.431 193.577C260.373 193.577 261.138 192.844 261.138 191.941ZM266.256 191.941C266.256 191.038 265.491 190.306 264.549 190.306C263.607 190.306 262.843 191.037 262.843 191.941C262.843 192.844 263.607 193.577 264.549 193.577C265.493 193.577 266.256 192.844 266.256 191.941ZM271.375 191.941C271.375 191.038 270.611 190.306 269.669 190.306C268.727 190.306 267.962 191.037 267.962 191.941C267.962 192.844 268.727 193.577 269.669 193.577C270.611 193.577 271.375 192.844 271.375 191.941ZM276.493 191.941C276.493 191.038 275.729 190.306 274.787 190.306C273.845 190.306 273.08 191.037 273.08 191.941C273.08 192.844 273.845 193.577 274.787 193.577C275.73 193.577 276.493 192.844 276.493 191.941ZM281.613 191.941C281.613 191.038 280.848 190.306 279.906 190.306C278.964 190.306 278.2 191.037 278.2 191.941C278.2 192.844 278.964 193.577 279.906 193.577C280.848 193.577 281.613 192.844 281.613 191.941ZM256.02 205.022C256.02 204.119 255.255 203.387 254.313 203.387C253.371 203.387 252.607 204.119 252.607 205.022C252.607 205.925 253.371 206.658 254.313 206.658C255.255 206.658 256.02 205.927 256.02 205.022ZM261.138 205.022C261.138 204.119 260.375 203.387 259.431 203.387C258.489 203.387 257.725 204.119 257.725 205.022C257.725 205.925 258.489 206.658 259.431 206.658C260.373 206.658 261.138 205.927 261.138 205.022ZM266.256 205.022C266.256 204.119 265.491 203.387 264.549 203.387C263.607 203.387 262.843 204.119 262.843 205.022C262.843 205.925 263.607 206.658 264.549 206.658C265.493 206.658 266.256 205.927 266.256 205.022ZM271.375 205.022C271.375 204.119 270.611 203.387 269.669 203.387C268.727 203.387 267.962 204.119 267.962 205.022C267.962 205.925 268.727 206.658 269.669 206.658C270.611 206.658 271.375 205.927 271.375 205.022ZM276.493 205.022C276.493 204.119 275.729 203.387 274.787 203.387C273.845 203.387 273.08 204.119 273.08 205.022C273.08 205.925 273.845 206.658 274.787 206.658C275.73 206.658 276.493 205.927 276.493 205.022ZM281.613 205.022C281.613 204.119 280.848 203.387 279.906 203.387C278.964 203.387 278.2 204.119 278.2 205.022C278.2 205.925 278.964 206.658 279.906 206.658C280.848 206.658 281.613 205.927 281.613 205.022ZM273.508 223.828C273.508 222.925 272.744 222.192 271.802 222.192C270.86 222.192 270.095 222.925 270.095 223.828C270.095 224.73 270.86 225.463 271.802 225.463C272.744 225.463 273.508 224.73 273.508 223.828ZM278.626 223.828C278.626 222.925 277.862 222.192 276.92 222.192C275.978 222.192 275.213 222.925 275.213 223.828C275.213 224.73 275.978 225.463 276.92 225.463C277.862 225.463 278.626 224.73 278.626 223.828ZM283.744 223.828C283.744 222.925 282.98 222.192 282.038 222.192C281.096 222.192 280.331 222.925 280.331 223.828C280.331 224.73 281.096 225.463 282.038 225.463C282.982 225.463 283.744 224.73 283.744 223.828ZM288.864 223.828C288.864 222.925 288.1 222.192 287.158 222.192C286.215 222.192 285.451 222.925 285.451 223.828C285.451 224.73 286.215 225.463 287.158 225.463C288.1 225.463 288.864 224.73 288.864 223.828ZM293.982 223.828C293.982 222.925 293.219 222.192 292.276 222.192C291.333 222.192 290.569 222.925 290.569 223.828C290.569 224.73 291.333 225.463 292.276 225.463C293.219 225.463 293.982 224.73 293.982 223.828ZM299.102 223.828C299.102 222.925 298.337 222.192 297.395 222.192C296.453 222.192 295.689 222.925 295.689 223.828C295.689 224.73 296.453 225.463 297.395 225.463C298.337 225.463 299.102 224.73 299.102 223.828ZM273.508 237.319C273.508 236.416 272.744 235.684 271.802 235.684C270.86 235.684 270.095 236.416 270.095 237.319C270.095 238.222 270.86 238.955 271.802 238.955C272.744 238.953 273.508 238.222 273.508 237.319ZM278.626 237.319C278.626 236.416 277.862 235.684 276.92 235.684C275.978 235.684 275.213 236.416 275.213 237.319C275.213 238.222 275.978 238.955 276.92 238.955C277.862 238.953 278.626 238.222 278.626 237.319ZM283.744 237.319C283.744 236.416 282.98 235.684 282.038 235.684C281.096 235.684 280.331 236.416 280.331 237.319C280.331 238.222 281.096 238.955 282.038 238.955C282.982 238.953 283.744 238.222 283.744 237.319ZM288.864 237.319C288.864 236.416 288.1 235.684 287.158 235.684C286.215 235.684 285.451 236.416 285.451 237.319C285.451 238.222 286.215 238.955 287.158 238.955C288.1 238.953 288.864 238.222 288.864 237.319ZM293.982 237.319C293.982 236.416 293.219 235.684 292.276 235.684C291.333 235.684 290.569 236.416 290.569 237.319C290.569 238.222 291.333 238.955 292.276 238.955C293.219 238.953 293.982 238.222 293.982 237.319ZM299.102 237.319C299.102 236.416 298.337 235.684 297.395 235.684C296.453 235.684 295.689 236.416 295.689 237.319C295.689 238.222 296.453 238.955 297.395 238.955C298.337 238.953 299.102 238.222 299.102 237.319Z" fill="#283996"/>
<path d="M225.307 245.693H219.335C218.522 245.693 217.864 245.062 217.864 244.281C217.864 243.501 218.522 242.869 219.335 242.869H225.307C226.12 242.869 226.78 243.499 226.78 244.281C226.78 245.062 226.12 245.693 225.307 245.693ZM226.78 250.823C226.78 250.043 226.122 249.411 225.307 249.411H219.335C218.522 249.411 217.864 250.042 217.864 250.823C217.864 251.603 218.522 252.235 219.335 252.235H225.307C226.12 252.235 226.78 251.603 226.78 250.823ZM226.78 257.363C226.78 256.584 226.122 255.953 225.307 255.953H219.335C218.522 255.953 217.864 256.584 217.864 257.363C217.864 258.143 218.522 258.775 219.335 258.775H225.307C226.12 258.774 226.78 258.143 226.78 257.363ZM226.78 263.904C226.78 263.124 226.122 262.492 225.307 262.492H219.335C218.522 262.492 217.864 263.123 217.864 263.904C217.864 264.684 218.522 265.316 219.335 265.316H225.307C226.12 265.316 226.78 264.684 226.78 263.904ZM226.78 270.444C226.78 269.665 226.122 269.032 225.307 269.032H219.335C218.522 269.032 217.864 269.663 217.864 270.444C217.864 271.224 218.522 271.855 219.335 271.855H225.307C226.12 271.857 226.78 271.224 226.78 270.444ZM226.78 276.987C226.78 276.207 226.122 275.576 225.307 275.576H219.335C218.522 275.576 217.864 276.207 217.864 276.987C217.864 277.766 218.522 278.399 219.335 278.399H225.307C226.12 278.399 226.78 277.766 226.78 276.987ZM226.78 283.527C226.78 282.747 226.122 282.115 225.307 282.115H219.335C218.522 282.115 217.864 282.746 217.864 283.527C217.864 284.307 218.522 284.938 219.335 284.938H225.307C226.12 284.939 226.78 284.307 226.78 283.527ZM226.78 290.068C226.78 289.288 226.122 288.656 225.307 288.656H219.335C218.522 288.656 217.864 289.286 217.864 290.068C217.864 290.847 218.522 291.478 219.335 291.478H225.307C226.12 291.48 226.78 290.847 226.78 290.068ZM249.12 244.282C249.12 243.502 248.462 242.87 247.649 242.87H231.973C231.159 242.87 230.501 243.501 230.501 244.282C230.501 245.062 231.159 245.694 231.973 245.694H247.649C248.461 245.693 249.12 245.062 249.12 244.282ZM249.12 250.823C249.12 250.043 248.462 249.411 247.649 249.411H231.973C231.159 249.411 230.501 250.042 230.501 250.823C230.501 251.603 231.159 252.235 231.973 252.235H247.649C248.461 252.235 249.12 251.603 249.12 250.823ZM249.12 257.363C249.12 256.584 248.462 255.953 247.649 255.953H231.973C231.159 255.953 230.501 256.584 230.501 257.363C230.501 258.143 231.159 258.775 231.973 258.775H247.649C248.461 258.774 249.12 258.143 249.12 257.363ZM249.12 263.904C249.12 263.124 248.462 262.492 247.649 262.492H231.973C231.159 262.492 230.501 263.123 230.501 263.904C230.501 264.684 231.159 265.316 231.973 265.316H247.649C248.461 265.316 249.12 264.684 249.12 263.904ZM249.12 270.444C249.12 269.665 248.462 269.032 247.649 269.032H231.973C231.159 269.032 230.501 269.663 230.501 270.444C230.501 271.224 231.159 271.855 231.973 271.855H247.649C248.461 271.857 249.12 271.224 249.12 270.444ZM267.889 276.987C267.889 276.207 267.231 275.576 266.416 275.576H250.74C249.926 275.576 249.266 276.207 249.266 276.987C249.266 277.766 249.925 278.399 250.74 278.399H266.416C267.229 278.399 267.889 277.766 267.889 276.987ZM267.889 283.527C267.889 282.747 267.231 282.115 266.416 282.115H250.74C249.926 282.115 249.266 282.746 249.266 283.527C249.266 284.307 249.925 284.938 250.74 284.938H266.416C267.229 284.939 267.889 284.307 267.889 283.527ZM267.889 290.068C267.889 289.288 267.231 288.656 266.416 288.656H250.74C249.926 288.656 249.266 289.286 249.266 290.068C249.266 290.847 249.925 291.478 250.74 291.478H266.416C267.229 291.48 267.889 290.847 267.889 290.068ZM256.02 244.282C256.02 243.379 255.255 242.647 254.313 242.647C253.371 242.647 252.607 243.379 252.607 244.282C252.607 245.185 253.371 245.918 254.313 245.918C255.255 245.916 256.02 245.185 256.02 244.282ZM261.138 244.282C261.138 243.379 260.375 242.647 259.431 242.647C258.489 242.647 257.725 243.379 257.725 244.282C257.725 245.185 258.489 245.918 259.431 245.918C260.373 245.916 261.138 245.185 261.138 244.282ZM266.256 244.282C266.256 243.379 265.491 242.647 264.549 242.647C263.607 242.647 262.843 243.379 262.843 244.282C262.843 245.185 263.607 245.918 264.549 245.918C265.493 245.916 266.256 245.185 266.256 244.282ZM271.375 244.282C271.375 243.379 270.611 242.647 269.669 242.647C268.727 242.647 267.962 243.379 267.962 244.282C267.962 245.185 268.727 245.918 269.669 245.918C270.611 245.916 271.375 245.185 271.375 244.282ZM276.493 244.282C276.493 243.379 275.729 242.647 274.787 242.647C273.845 242.647 273.08 243.379 273.08 244.282C273.08 245.185 273.845 245.918 274.787 245.918C275.73 245.916 276.493 245.185 276.493 244.282ZM281.613 244.282C281.613 243.379 280.848 242.647 279.906 242.647C278.964 242.647 278.2 243.379 278.2 244.282C278.2 245.185 278.964 245.918 279.906 245.918C280.848 245.916 281.613 245.185 281.613 244.282ZM256.02 257.363C256.02 256.46 255.255 255.728 254.313 255.728C253.371 255.728 252.607 256.459 252.607 257.363C252.607 258.266 253.371 258.999 254.313 258.999C255.255 258.999 256.02 258.266 256.02 257.363ZM261.138 257.363C261.138 256.46 260.375 255.728 259.431 255.728C258.489 255.728 257.725 256.459 257.725 257.363C257.725 258.266 258.489 258.999 259.431 258.999C260.373 258.999 261.138 258.266 261.138 257.363ZM266.256 257.363C266.256 256.46 265.491 255.728 264.549 255.728C263.607 255.728 262.843 256.459 262.843 257.363C262.843 258.266 263.607 258.999 264.549 258.999C265.493 258.999 266.256 258.266 266.256 257.363ZM271.375 257.363C271.375 256.46 270.611 255.728 269.669 255.728C268.727 255.728 267.962 256.459 267.962 257.363C267.962 258.266 268.727 258.999 269.669 258.999C270.611 258.999 271.375 258.266 271.375 257.363ZM276.493 257.363C276.493 256.46 275.729 255.728 274.787 255.728C273.845 255.728 273.08 256.459 273.08 257.363C273.08 258.266 273.845 258.999 274.787 258.999C275.73 258.999 276.493 258.266 276.493 257.363ZM281.613 257.363C281.613 256.46 280.848 255.728 279.906 255.728C278.964 255.728 278.2 256.459 278.2 257.363C278.2 258.266 278.964 258.999 279.906 258.999C280.848 258.999 281.613 258.266 281.613 257.363ZM273.508 276.169C273.508 275.266 272.744 274.533 271.802 274.533C270.86 274.533 270.095 275.266 270.095 276.169C270.095 277.072 270.86 277.804 271.802 277.804C272.744 277.803 273.508 277.072 273.508 276.169ZM278.626 276.169C278.626 275.266 277.862 274.533 276.92 274.533C275.978 274.533 275.213 275.266 275.213 276.169C275.213 277.072 275.978 277.804 276.92 277.804C277.862 277.803 278.626 277.072 278.626 276.169ZM283.744 276.169C283.744 275.266 282.98 274.533 282.038 274.533C281.096 274.533 280.331 275.266 280.331 276.169C280.331 277.072 281.096 277.804 282.038 277.804C282.982 277.803 283.744 277.072 283.744 276.169ZM288.864 276.169C288.864 275.266 288.1 274.533 287.158 274.533C286.215 274.533 285.451 275.266 285.451 276.169C285.451 277.072 286.215 277.804 287.158 277.804C288.1 277.803 288.864 277.072 288.864 276.169ZM293.982 276.169C293.982 275.266 293.219 274.533 292.276 274.533C291.333 274.533 290.569 275.266 290.569 276.169C290.569 277.072 291.333 277.804 292.276 277.804C293.219 277.803 293.982 277.072 293.982 276.169ZM299.102 276.169C299.102 275.266 298.337 274.533 297.395 274.533C296.453 274.533 295.689 275.266 295.689 276.169C295.689 277.072 296.453 277.804 297.395 277.804C298.337 277.803 299.102 277.072 299.102 276.169ZM273.508 289.659C273.508 288.756 272.744 288.023 271.802 288.023C270.86 288.023 270.095 288.756 270.095 289.659C270.095 290.562 270.86 291.294 271.802 291.294C272.744 291.294 273.508 290.562 273.508 289.659ZM278.626 289.659C278.626 288.756 277.862 288.023 276.92 288.023C275.978 288.023 275.213 288.756 275.213 289.659C275.213 290.562 275.978 291.294 276.92 291.294C277.862 291.294 278.626 290.562 278.626 289.659ZM283.744 289.659C283.744 288.756 282.98 288.023 282.038 288.023C281.096 288.023 280.331 288.756 280.331 289.659C280.331 290.562 281.096 291.294 282.038 291.294C282.982 291.294 283.744 290.562 283.744 289.659ZM288.864 289.659C288.864 288.756 288.1 288.023 287.158 288.023C286.215 288.023 285.451 288.756 285.451 289.659C285.451 290.562 286.215 291.294 287.158 291.294C288.1 291.294 288.864 290.562 288.864 289.659ZM293.982 289.659C293.982 288.756 293.219 288.023 292.276 288.023C291.333 288.023 290.569 288.756 290.569 289.659C290.569 290.562 291.333 291.294 292.276 291.294C293.219 291.294 293.982 290.562 293.982 289.659ZM299.102 289.659C299.102 288.756 298.337 288.023 297.395 288.023C296.453 288.023 295.689 288.756 295.689 289.659C295.689 290.562 296.453 291.294 297.395 291.294C298.337 291.294 299.102 290.562 299.102 289.659Z" fill="#283996"/>
<path d="M225.307 299.297H219.335C218.522 299.297 217.864 298.666 217.864 297.885C217.864 297.105 218.522 296.473 219.335 296.473H225.307C226.12 296.473 226.78 297.104 226.78 297.885C226.78 298.666 226.12 299.297 225.307 299.297ZM226.78 304.427C226.78 303.647 226.122 303.017 225.307 303.017H219.335C218.522 303.017 217.864 303.647 217.864 304.427C217.864 305.207 218.522 305.839 219.335 305.839H225.307C226.12 305.838 226.78 305.207 226.78 304.427ZM226.78 310.968C226.78 310.188 226.122 309.556 225.307 309.556H219.335C218.522 309.556 217.864 310.186 217.864 310.968C217.864 311.747 218.522 312.378 219.335 312.378H225.307C226.12 312.378 226.78 311.747 226.78 310.968ZM226.78 317.508C226.78 316.728 226.122 316.096 225.307 316.096H219.335C218.522 316.096 217.864 316.727 217.864 317.508C217.864 318.288 218.522 318.919 219.335 318.919H225.307C226.12 318.919 226.78 318.288 226.78 317.508ZM226.78 324.049C226.78 323.269 226.122 322.637 225.307 322.637H219.335C218.522 322.637 217.864 323.268 217.864 324.049C217.864 324.829 218.522 325.461 219.335 325.461H225.307C226.12 325.461 226.78 324.829 226.78 324.049ZM226.78 330.591C226.78 329.811 226.122 329.179 225.307 329.179H219.335C218.522 329.179 217.864 329.81 217.864 330.591C217.864 331.371 218.522 332.003 219.335 332.003H225.307C226.12 332.003 226.78 331.371 226.78 330.591ZM226.78 337.131C226.78 336.352 226.122 335.719 225.307 335.719H219.335C218.522 335.719 217.864 336.35 217.864 337.131C217.864 337.911 218.522 338.542 219.335 338.542H225.307C226.12 338.544 226.78 337.911 226.78 337.131ZM226.78 343.672C226.78 342.892 226.122 342.26 225.307 342.26H219.335C218.522 342.26 217.864 342.892 217.864 343.672C217.864 344.452 218.522 345.084 219.335 345.084H225.307C226.12 345.084 226.78 344.452 226.78 343.672ZM249.12 297.887C249.12 297.107 248.462 296.474 247.649 296.474H231.973C231.159 296.474 230.501 297.105 230.501 297.887C230.501 298.666 231.159 299.299 231.973 299.299H247.649C248.461 299.297 249.12 298.666 249.12 297.887ZM249.12 304.427C249.12 303.647 248.462 303.017 247.649 303.017H231.973C231.159 303.017 230.501 303.647 230.501 304.427C230.501 305.207 231.159 305.839 231.973 305.839H247.649C248.461 305.838 249.12 305.207 249.12 304.427ZM249.12 310.968C249.12 310.188 248.462 309.556 247.649 309.556H231.973C231.159 309.556 230.501 310.186 230.501 310.968C230.501 311.747 231.159 312.378 231.973 312.378H247.649C248.461 312.378 249.12 311.747 249.12 310.968ZM249.12 317.508C249.12 316.728 248.462 316.096 247.649 316.096H231.973C231.159 316.096 230.501 316.727 230.501 317.508C230.501 318.288 231.159 318.919 231.973 318.919H247.649C248.461 318.919 249.12 318.288 249.12 317.508ZM249.12 324.049C249.12 323.269 248.462 322.637 247.649 322.637H231.973C231.159 322.637 230.501 323.268 230.501 324.049C230.501 324.829 231.159 325.461 231.973 325.461H247.649C248.461 325.461 249.12 324.829 249.12 324.049ZM267.889 330.591C267.889 329.811 267.231 329.179 266.416 329.179H250.74C249.926 329.179 249.266 329.81 249.266 330.591C249.266 331.371 249.925 332.003 250.74 332.003H266.416C267.229 332.003 267.889 331.371 267.889 330.591ZM267.889 337.131C267.889 336.352 267.231 335.719 266.416 335.719H250.74C249.926 335.719 249.266 336.35 249.266 337.131C249.266 337.911 249.925 338.542 250.74 338.542H266.416C267.229 338.544 267.889 337.911 267.889 337.131ZM267.889 343.672C267.889 342.892 267.231 342.26 266.416 342.26H250.74C249.926 342.26 249.266 342.892 249.266 343.672C249.266 344.452 249.925 345.084 250.74 345.084H266.416C267.229 345.084 267.889 344.452 267.889 343.672ZM256.02 297.887C256.02 296.984 255.255 296.251 254.313 296.251C253.371 296.251 252.607 296.984 252.607 297.887C252.607 298.789 253.371 299.522 254.313 299.522C255.255 299.521 256.02 298.789 256.02 297.887ZM261.138 297.887C261.138 296.984 260.375 296.251 259.431 296.251C258.489 296.251 257.725 296.984 257.725 297.887C257.725 298.789 258.489 299.522 259.431 299.522C260.373 299.521 261.138 298.789 261.138 297.887ZM266.256 297.887C266.256 296.984 265.491 296.251 264.549 296.251C263.607 296.251 262.843 296.984 262.843 297.887C262.843 298.789 263.607 299.522 264.549 299.522C265.493 299.521 266.256 298.789 266.256 297.887ZM271.375 297.887C271.375 296.984 270.611 296.251 269.669 296.251C268.727 296.251 267.962 296.984 267.962 297.887C267.962 298.789 268.727 299.522 269.669 299.522C270.611 299.521 271.375 298.789 271.375 297.887ZM276.493 297.887C276.493 296.984 275.729 296.251 274.787 296.251C273.845 296.251 273.08 296.984 273.08 297.887C273.08 298.789 273.845 299.522 274.787 299.522C275.73 299.521 276.493 298.789 276.493 297.887ZM281.613 297.887C281.613 296.984 280.848 296.251 279.906 296.251C278.964 296.251 278.2 296.984 278.2 297.887C278.2 298.789 278.964 299.522 279.906 299.522C280.848 299.521 281.613 298.789 281.613 297.887ZM256.02 310.968C256.02 310.065 255.255 309.332 254.313 309.332C253.371 309.332 252.607 310.065 252.607 310.968C252.607 311.871 253.371 312.603 254.313 312.603C255.255 312.603 256.02 311.871 256.02 310.968ZM261.138 310.968C261.138 310.065 260.375 309.332 259.431 309.332C258.489 309.332 257.725 310.065 257.725 310.968C257.725 311.871 258.489 312.603 259.431 312.603C260.373 312.603 261.138 311.871 261.138 310.968ZM266.256 310.968C266.256 310.065 265.491 309.332 264.549 309.332C263.607 309.332 262.843 310.065 262.843 310.968C262.843 311.871 263.607 312.603 264.549 312.603C265.493 312.603 266.256 311.871 266.256 310.968ZM271.375 310.968C271.375 310.065 270.611 309.332 269.669 309.332C268.727 309.332 267.962 310.065 267.962 310.968C267.962 311.871 268.727 312.603 269.669 312.603C270.611 312.603 271.375 311.871 271.375 310.968ZM276.493 310.968C276.493 310.065 275.729 309.332 274.787 309.332C273.845 309.332 273.08 310.065 273.08 310.968C273.08 311.871 273.845 312.603 274.787 312.603C275.73 312.603 276.493 311.871 276.493 310.968ZM281.613 310.968C281.613 310.065 280.848 309.332 279.906 309.332C278.964 309.332 278.2 310.065 278.2 310.968C278.2 311.871 278.964 312.603 279.906 312.603C280.848 312.603 281.613 311.871 281.613 310.968ZM273.508 329.773C273.508 328.87 272.744 328.138 271.802 328.138C270.86 328.138 270.095 328.87 270.095 329.773C270.095 330.676 270.86 331.409 271.802 331.409C272.744 331.409 273.508 330.676 273.508 329.773ZM278.626 329.773C278.626 328.87 277.862 328.138 276.92 328.138C275.978 328.138 275.213 328.87 275.213 329.773C275.213 330.676 275.978 331.409 276.92 331.409C277.862 331.409 278.626 330.676 278.626 329.773ZM283.744 329.773C283.744 328.87 282.98 328.138 282.038 328.138C281.096 328.138 280.331 328.87 280.331 329.773C280.331 330.676 281.096 331.409 282.038 331.409C282.982 331.409 283.744 330.676 283.744 329.773ZM288.864 329.773C288.864 328.87 288.1 328.138 287.158 328.138C286.215 328.138 285.451 328.87 285.451 329.773C285.451 330.676 286.215 331.409 287.158 331.409C288.1 331.409 288.864 330.676 288.864 329.773ZM293.982 329.773C293.982 328.87 293.219 328.138 292.276 328.138C291.333 328.138 290.569 328.87 290.569 329.773C290.569 330.676 291.333 331.409 292.276 331.409C293.219 331.409 293.982 330.676 293.982 329.773ZM299.102 329.773C299.102 328.87 298.337 328.138 297.395 328.138C296.453 328.138 295.689 328.87 295.689 329.773C295.689 330.676 296.453 331.409 297.395 331.409C298.337 331.409 299.102 330.676 299.102 329.773ZM273.508 343.263C273.508 342.36 272.744 341.628 271.802 341.628C270.86 341.628 270.095 342.36 270.095 343.263C270.095 344.166 270.86 344.899 271.802 344.899C272.744 344.899 273.508 344.166 273.508 343.263ZM278.626 343.263C278.626 342.36 277.862 341.628 276.92 341.628C275.978 341.628 275.213 342.36 275.213 343.263C275.213 344.166 275.978 344.899 276.92 344.899C277.862 344.899 278.626 344.166 278.626 343.263ZM283.744 343.263C283.744 342.36 282.98 341.628 282.038 341.628C281.096 341.628 280.331 342.36 280.331 343.263C280.331 344.166 281.096 344.899 282.038 344.899C282.982 344.899 283.744 344.166 283.744 343.263ZM288.864 343.263C288.864 342.36 288.1 341.628 287.158 341.628C286.215 341.628 285.451 342.36 285.451 343.263C285.451 344.166 286.215 344.899 287.158 344.899C288.1 344.899 288.864 344.166 288.864 343.263ZM293.982 343.263C293.982 342.36 293.219 341.628 292.276 341.628C291.333 341.628 290.569 342.36 290.569 343.263C290.569 344.166 291.333 344.899 292.276 344.899C293.219 344.899 293.982 344.166 293.982 343.263ZM299.102 343.263C299.102 342.36 298.337 341.628 297.395 341.628C296.453 341.628 295.689 342.36 295.689 343.263C295.689 344.166 296.453 344.899 297.395 344.899C298.337 344.899 299.102 344.166 299.102 343.263Z" fill="#283996"/>
<path d="M316.992 193.353H311.021C310.207 193.353 309.549 192.722 309.549 191.941C309.549 191.161 310.207 190.53 311.021 190.53H316.992C317.805 190.53 318.465 191.161 318.465 191.941C318.464 192.721 317.805 193.353 316.992 193.353ZM318.464 198.482C318.464 197.702 317.805 197.071 316.99 197.071H311.019C310.205 197.071 309.547 197.702 309.547 198.482C309.547 199.261 310.205 199.894 311.019 199.894H316.99C317.805 199.894 318.464 199.261 318.464 198.482ZM318.464 205.022C318.464 204.242 317.805 203.612 316.99 203.612H311.019C310.205 203.612 309.547 204.242 309.547 205.022C309.547 205.802 310.205 206.434 311.019 206.434H316.99C317.805 206.434 318.464 205.803 318.464 205.022ZM318.464 211.563C318.464 210.783 317.805 210.151 316.99 210.151H311.019C310.205 210.151 309.547 210.781 309.547 211.563C309.547 212.342 310.205 212.975 311.019 212.975H316.99C317.805 212.975 318.464 212.344 318.464 211.563ZM318.464 218.103C318.464 217.324 317.805 216.691 316.99 216.691H311.019C310.205 216.691 309.547 217.322 309.547 218.103C309.547 218.883 310.205 219.515 311.019 219.515H316.99C317.805 219.515 318.464 218.885 318.464 218.103ZM318.464 224.645C318.464 223.866 317.805 223.235 316.99 223.235H311.019C310.205 223.235 309.547 223.866 309.547 224.645C309.547 225.425 310.205 226.057 311.019 226.057H316.99C317.805 226.057 318.464 225.427 318.464 224.645ZM318.464 231.187C318.464 230.408 317.805 229.775 316.99 229.775H311.019C310.205 229.775 309.547 230.406 309.547 231.187C309.547 231.967 310.205 232.6 311.019 232.6H316.99C317.805 232.598 318.464 231.967 318.464 231.187ZM318.464 237.728C318.464 236.948 317.805 236.316 316.99 236.316H311.019C310.205 236.316 309.547 236.947 309.547 237.728C309.547 238.508 310.205 239.139 311.019 239.139H316.99C317.805 239.139 318.464 238.508 318.464 237.728ZM340.806 191.941C340.806 191.161 340.147 190.53 339.332 190.53H323.656C322.843 190.53 322.183 191.161 322.183 191.941C322.183 192.721 322.841 193.353 323.656 193.353H339.332C340.147 193.353 340.806 192.721 340.806 191.941ZM340.806 198.482C340.806 197.702 340.147 197.071 339.332 197.071H323.656C322.843 197.071 322.183 197.702 322.183 198.482C322.183 199.261 322.841 199.894 323.656 199.894H339.332C340.147 199.894 340.806 199.261 340.806 198.482ZM340.806 205.022C340.806 204.242 340.147 203.612 339.332 203.612H323.656C322.843 203.612 322.183 204.242 322.183 205.022C322.183 205.802 322.841 206.434 323.656 206.434H339.332C340.147 206.434 340.806 205.803 340.806 205.022ZM340.806 211.563C340.806 210.783 340.147 210.151 339.332 210.151H323.656C322.843 210.151 322.183 210.781 322.183 211.563C322.183 212.342 322.841 212.975 323.656 212.975H339.332C340.147 212.975 340.806 212.344 340.806 211.563ZM340.806 218.103C340.806 217.324 340.147 216.691 339.332 216.691H323.656C322.843 216.691 322.183 217.322 322.183 218.103C322.183 218.883 322.841 219.515 323.656 219.515H339.332C340.147 219.515 340.806 218.885 340.806 218.103ZM359.573 224.645C359.573 223.866 358.915 223.235 358.099 223.235H342.423C341.61 223.235 340.95 223.866 340.95 224.645C340.95 225.425 341.608 226.057 342.423 226.057H358.099C358.915 226.057 359.573 225.427 359.573 224.645ZM359.573 231.187C359.573 230.408 358.915 229.775 358.099 229.775H342.423C341.61 229.775 340.95 230.406 340.95 231.187C340.95 231.967 341.608 232.6 342.423 232.6H358.099C358.915 232.598 359.573 231.967 359.573 231.187ZM359.573 237.728C359.573 236.948 358.915 236.316 358.099 236.316H342.423C341.61 236.316 340.95 236.947 340.95 237.728C340.95 238.508 341.608 239.139 342.423 239.139H358.099C358.915 239.139 359.573 238.508 359.573 237.728ZM347.705 191.941C347.705 191.038 346.94 190.306 345.998 190.306C345.056 190.306 344.292 191.037 344.292 191.941C344.292 192.844 345.056 193.577 345.998 193.577C346.94 193.577 347.705 192.844 347.705 191.941ZM352.823 191.941C352.823 191.038 352.058 190.306 351.116 190.306C350.174 190.306 349.41 191.037 349.41 191.941C349.41 192.844 350.174 193.577 351.116 193.577C352.058 193.577 352.823 192.844 352.823 191.941ZM357.941 191.941C357.941 191.038 357.176 190.306 356.234 190.306C355.292 190.306 354.528 191.037 354.528 191.941C354.528 192.844 355.292 193.577 356.234 193.577C357.178 193.577 357.941 192.844 357.941 191.941ZM363.06 191.941C363.06 191.038 362.296 190.306 361.354 190.306C360.412 190.306 359.647 191.037 359.647 191.941C359.647 192.844 360.412 193.577 361.354 193.577C362.296 193.577 363.06 192.844 363.06 191.941ZM368.178 191.941C368.178 191.038 367.414 190.306 366.472 190.306C365.53 190.306 364.765 191.037 364.765 191.941C364.765 192.844 365.53 193.577 366.472 193.577C367.416 193.577 368.178 192.844 368.178 191.941ZM373.298 191.941C373.298 191.038 372.534 190.306 371.591 190.306C370.649 190.306 369.885 191.037 369.885 191.941C369.885 192.844 370.649 193.577 371.591 193.577C372.534 193.577 373.298 192.844 373.298 191.941ZM347.705 205.022C347.705 204.119 346.94 203.387 345.998 203.387C345.056 203.387 344.292 204.119 344.292 205.022C344.292 205.925 345.056 206.658 345.998 206.658C346.94 206.658 347.705 205.927 347.705 205.022ZM352.823 205.022C352.823 204.119 352.058 203.387 351.116 203.387C350.174 203.387 349.41 204.119 349.41 205.022C349.41 205.925 350.174 206.658 351.116 206.658C352.058 206.658 352.823 205.927 352.823 205.022ZM357.941 205.022C357.941 204.119 357.176 203.387 356.234 203.387C355.292 203.387 354.528 204.119 354.528 205.022C354.528 205.925 355.292 206.658 356.234 206.658C357.178 206.658 357.941 205.927 357.941 205.022ZM363.06 205.022C363.06 204.119 362.296 203.387 361.354 203.387C360.412 203.387 359.647 204.119 359.647 205.022C359.647 205.925 360.412 206.658 361.354 206.658C362.296 206.658 363.06 205.927 363.06 205.022ZM368.178 205.022C368.178 204.119 367.414 203.387 366.472 203.387C365.53 203.387 364.765 204.119 364.765 205.022C364.765 205.925 365.53 206.658 366.472 206.658C367.416 206.658 368.178 205.927 368.178 205.022ZM373.298 205.022C373.298 204.119 372.534 203.387 371.591 203.387C370.649 203.387 369.885 204.119 369.885 205.022C369.885 205.925 370.649 206.658 371.591 206.658C372.534 206.658 373.298 205.927 373.298 205.022ZM365.194 223.828C365.194 222.925 364.429 222.192 363.487 222.192C362.545 222.192 361.78 222.925 361.78 223.828C361.78 224.73 362.545 225.463 363.487 225.463C364.429 225.463 365.194 224.73 365.194 223.828ZM370.312 223.828C370.312 222.925 369.547 222.192 368.605 222.192C367.663 222.192 366.898 222.925 366.898 223.828C366.898 224.73 367.661 225.463 368.605 225.463C369.547 225.463 370.312 224.73 370.312 223.828ZM375.43 223.828C375.43 222.925 374.665 222.192 373.723 222.192C372.781 222.192 372.016 222.925 372.016 223.828C372.016 224.73 372.781 225.463 373.723 225.463C374.667 225.463 375.43 224.73 375.43 223.828ZM380.549 223.828C380.549 222.925 379.785 222.192 378.843 222.192C377.901 222.192 377.136 222.925 377.136 223.828C377.136 224.73 377.901 225.463 378.843 225.463C379.785 225.463 380.549 224.73 380.549 223.828ZM385.667 223.828C385.667 222.925 384.903 222.192 383.961 222.192C383.019 222.192 382.254 222.925 382.254 223.828C382.254 224.73 383.019 225.463 383.961 225.463C384.903 225.463 385.667 224.73 385.667 223.828ZM390.785 223.828C390.785 222.925 390.021 222.192 389.079 222.192C388.137 222.192 387.372 222.925 387.372 223.828C387.372 224.73 388.135 225.463 389.079 225.463C390.022 225.463 390.785 224.73 390.785 223.828ZM365.194 237.319C365.194 236.416 364.429 235.684 363.487 235.684C362.545 235.684 361.78 236.416 361.78 237.319C361.78 238.222 362.545 238.955 363.487 238.955C364.429 238.953 365.194 238.222 365.194 237.319ZM370.312 237.319C370.312 236.416 369.547 235.684 368.605 235.684C367.663 235.684 366.898 236.416 366.898 237.319C366.898 238.222 367.661 238.955 368.605 238.955C369.547 238.953 370.312 238.222 370.312 237.319ZM375.43 237.319C375.43 236.416 374.665 235.684 373.723 235.684C372.781 235.684 372.016 236.416 372.016 237.319C372.016 238.222 372.781 238.955 373.723 238.955C374.667 238.953 375.43 238.222 375.43 237.319ZM380.549 237.319C380.549 236.416 379.785 235.684 378.843 235.684C377.901 235.684 377.136 236.416 377.136 237.319C377.136 238.222 377.901 238.955 378.843 238.955C379.785 238.953 380.549 238.222 380.549 237.319ZM385.667 237.319C385.667 236.416 384.903 235.684 383.961 235.684C383.019 235.684 382.254 236.416 382.254 237.319C382.254 238.222 383.019 238.955 383.961 238.955C384.903 238.953 385.667 238.222 385.667 237.319ZM390.785 237.319C390.785 236.416 390.021 235.684 389.079 235.684C388.137 235.684 387.372 236.416 387.372 237.319C387.372 238.222 388.135 238.955 389.079 238.955C390.022 238.953 390.785 238.222 390.785 237.319Z" fill="#283996"/>
<path d="M316.992 246.957H311.021C310.207 246.957 309.549 246.327 309.549 245.545C309.549 244.766 310.207 244.133 311.021 244.133H316.992C317.805 244.133 318.465 244.764 318.465 245.545C318.464 246.325 317.805 246.957 316.992 246.957ZM318.464 252.086C318.464 251.306 317.805 250.674 316.99 250.674H311.019C310.205 250.674 309.547 251.305 309.547 252.086C309.547 252.866 310.205 253.498 311.019 253.498H316.99C317.805 253.498 318.464 252.867 318.464 252.086ZM318.464 258.626C318.464 257.847 317.805 257.214 316.99 257.214H311.019C310.205 257.214 309.547 257.845 309.547 258.626C309.547 259.406 310.205 260.039 311.019 260.039H316.99C317.805 260.039 318.464 259.408 318.464 258.626ZM318.464 265.167C318.464 264.387 317.805 263.755 316.99 263.755H311.019C310.205 263.755 309.547 264.386 309.547 265.167C309.547 265.947 310.205 266.578 311.019 266.578H316.99C317.805 266.579 318.464 265.948 318.464 265.167ZM318.464 271.708C318.464 270.928 317.805 270.296 316.99 270.296H311.019C310.205 270.296 309.547 270.926 309.547 271.708C309.547 272.487 310.205 273.12 311.019 273.12H316.99C317.805 273.12 318.464 272.489 318.464 271.708ZM318.464 278.25C318.464 277.47 317.805 276.838 316.99 276.838H311.019C310.205 276.838 309.547 277.468 309.547 278.25C309.547 279.029 310.205 279.662 311.019 279.662H316.99C317.805 279.662 318.464 279.031 318.464 278.25ZM318.464 284.79C318.464 284.01 317.805 283.378 316.99 283.378H311.019C310.205 283.378 309.547 284.009 309.547 284.79C309.547 285.57 310.205 286.201 311.019 286.201H316.99C317.805 286.202 318.464 285.572 318.464 284.79ZM318.464 291.332C318.464 290.553 317.805 289.92 316.99 289.92H311.019C310.205 289.92 309.547 290.553 309.547 291.332C309.547 292.112 310.205 292.744 311.019 292.744H316.99C317.805 292.743 318.464 292.112 318.464 291.332ZM340.806 245.545C340.806 244.766 340.147 244.133 339.332 244.133H323.656C322.843 244.133 322.183 244.764 322.183 245.545C322.183 246.325 322.841 246.957 323.656 246.957H339.332C340.147 246.957 340.806 246.325 340.806 245.545ZM340.806 252.086C340.806 251.306 340.147 250.674 339.332 250.674H323.656C322.843 250.674 322.183 251.305 322.183 252.086C322.183 252.866 322.841 253.498 323.656 253.498H339.332C340.147 253.498 340.806 252.867 340.806 252.086ZM340.806 258.626C340.806 257.847 340.147 257.214 339.332 257.214H323.656C322.843 257.214 322.183 257.845 322.183 258.626C322.183 259.406 322.841 260.039 323.656 260.039H339.332C340.147 260.039 340.806 259.408 340.806 258.626ZM340.806 265.167C340.806 264.387 340.147 263.755 339.332 263.755H323.656C322.843 263.755 322.183 264.386 322.183 265.167C322.183 265.947 322.841 266.578 323.656 266.578H339.332C340.147 266.579 340.806 265.948 340.806 265.167ZM340.806 271.708C340.806 270.928 340.147 270.296 339.332 270.296H323.656C322.843 270.296 322.183 270.926 322.183 271.708C322.183 272.487 322.841 273.12 323.656 273.12H339.332C340.147 273.12 340.806 272.489 340.806 271.708ZM359.573 278.25C359.573 277.47 358.915 276.838 358.099 276.838H342.423C341.61 276.838 340.95 277.468 340.95 278.25C340.95 279.029 341.608 279.662 342.423 279.662H358.099C358.915 279.662 359.573 279.031 359.573 278.25ZM359.573 284.79C359.573 284.01 358.915 283.378 358.099 283.378H342.423C341.61 283.378 340.95 284.009 340.95 284.79C340.95 285.57 341.608 286.201 342.423 286.201H358.099C358.915 286.202 359.573 285.572 359.573 284.79ZM359.573 291.332C359.573 290.553 358.915 289.92 358.099 289.92H342.423C341.61 289.92 340.95 290.553 340.95 291.332C340.95 292.112 341.608 292.744 342.423 292.744H358.099C358.915 292.743 359.573 292.112 359.573 291.332ZM347.705 245.545C347.705 244.642 346.94 243.91 345.998 243.91C345.056 243.91 344.292 244.642 344.292 245.545C344.292 246.448 345.056 247.181 345.998 247.181C346.94 247.181 347.705 246.448 347.705 245.545ZM352.823 245.545C352.823 244.642 352.058 243.91 351.116 243.91C350.174 243.91 349.41 244.642 349.41 245.545C349.41 246.448 350.174 247.181 351.116 247.181C352.058 247.181 352.823 246.448 352.823 245.545ZM357.941 245.545C357.941 244.642 357.176 243.91 356.234 243.91C355.292 243.91 354.528 244.642 354.528 245.545C354.528 246.448 355.292 247.181 356.234 247.181C357.178 247.181 357.941 246.448 357.941 245.545ZM363.06 245.545C363.06 244.642 362.296 243.91 361.354 243.91C360.412 243.91 359.647 244.642 359.647 245.545C359.647 246.448 360.412 247.181 361.354 247.181C362.296 247.181 363.06 246.448 363.06 245.545ZM368.178 245.545C368.178 244.642 367.414 243.91 366.472 243.91C365.53 243.91 364.765 244.642 364.765 245.545C364.765 246.448 365.53 247.181 366.472 247.181C367.416 247.181 368.178 246.448 368.178 245.545ZM373.298 245.545C373.298 244.642 372.534 243.91 371.591 243.91C370.649 243.91 369.885 244.642 369.885 245.545C369.885 246.448 370.649 247.181 371.591 247.181C372.534 247.181 373.298 246.448 373.298 245.545ZM347.705 258.626C347.705 257.724 346.94 256.991 345.998 256.991C345.056 256.991 344.292 257.724 344.292 258.626C344.292 259.529 345.056 260.262 345.998 260.262C346.94 260.262 347.705 259.531 347.705 258.626ZM352.823 258.626C352.823 257.724 352.058 256.991 351.116 256.991C350.174 256.991 349.41 257.724 349.41 258.626C349.41 259.529 350.174 260.262 351.116 260.262C352.058 260.262 352.823 259.531 352.823 258.626ZM357.941 258.626C357.941 257.724 357.176 256.991 356.234 256.991C355.292 256.991 354.528 257.724 354.528 258.626C354.528 259.529 355.292 260.262 356.234 260.262C357.178 260.262 357.941 259.531 357.941 258.626ZM363.06 258.626C363.06 257.724 362.296 256.991 361.354 256.991C360.412 256.991 359.647 257.724 359.647 258.626C359.647 259.529 360.412 260.262 361.354 260.262C362.296 260.262 363.06 259.531 363.06 258.626ZM368.178 258.626C368.178 257.724 367.414 256.991 366.472 256.991C365.53 256.991 364.765 257.724 364.765 258.626C364.765 259.529 365.53 260.262 366.472 260.262C367.416 260.262 368.178 259.531 368.178 258.626ZM373.298 258.626C373.298 257.724 372.534 256.991 371.591 256.991C370.649 256.991 369.885 257.724 369.885 258.626C369.885 259.529 370.649 260.262 371.591 260.262C372.534 260.262 373.298 259.531 373.298 258.626ZM365.194 277.432C365.194 276.529 364.429 275.796 363.487 275.796C362.545 275.796 361.78 276.529 361.78 277.432C361.78 278.335 362.545 279.067 363.487 279.067C364.429 279.067 365.194 278.335 365.194 277.432ZM370.312 277.432C370.312 276.529 369.547 275.796 368.605 275.796C367.663 275.796 366.898 276.529 366.898 277.432C366.898 278.335 367.661 279.067 368.605 279.067C369.547 279.067 370.312 278.335 370.312 277.432ZM375.43 277.432C375.43 276.529 374.665 275.796 373.723 275.796C372.781 275.796 372.016 276.529 372.016 277.432C372.016 278.335 372.781 279.067 373.723 279.067C374.667 279.067 375.43 278.335 375.43 277.432ZM380.549 277.432C380.549 276.529 379.785 275.796 378.843 275.796C377.901 275.796 377.136 276.529 377.136 277.432C377.136 278.335 377.901 279.067 378.843 279.067C379.785 279.067 380.549 278.335 380.549 277.432ZM385.667 277.432C385.667 276.529 384.903 275.796 383.961 275.796C383.019 275.796 382.254 276.529 382.254 277.432C382.254 278.335 383.019 279.067 383.961 279.067C384.903 279.067 385.667 278.335 385.667 277.432ZM390.785 277.432C390.785 276.529 390.021 275.796 389.079 275.796C388.137 275.796 387.372 276.529 387.372 277.432C387.372 278.335 388.135 279.067 389.079 279.067C390.022 279.067 390.785 278.335 390.785 277.432ZM365.194 290.923C365.194 290.021 364.429 289.288 363.487 289.288C362.545 289.288 361.78 290.021 361.78 290.923C361.78 291.826 362.545 292.559 363.487 292.559C364.429 292.557 365.194 291.826 365.194 290.923ZM370.312 290.923C370.312 290.021 369.547 289.288 368.605 289.288C367.663 289.288 366.898 290.021 366.898 290.923C366.898 291.826 367.661 292.559 368.605 292.559C369.547 292.557 370.312 291.826 370.312 290.923ZM375.43 290.923C375.43 290.021 374.665 289.288 373.723 289.288C372.781 289.288 372.016 290.021 372.016 290.923C372.016 291.826 372.781 292.559 373.723 292.559C374.667 292.557 375.43 291.826 375.43 290.923ZM380.549 290.923C380.549 290.021 379.785 289.288 378.843 289.288C377.901 289.288 377.136 290.021 377.136 290.923C377.136 291.826 377.901 292.559 378.843 292.559C379.785 292.557 380.549 291.826 380.549 290.923ZM385.667 290.923C385.667 290.021 384.903 289.288 383.961 289.288C383.019 289.288 382.254 290.021 382.254 290.923C382.254 291.826 383.019 292.559 383.961 292.559C384.903 292.557 385.667 291.826 385.667 290.923ZM390.785 290.923C390.785 290.021 390.021 289.288 389.079 289.288C388.137 289.288 387.372 290.021 387.372 290.923C387.372 291.826 388.135 292.559 389.079 292.559C390.022 292.557 390.785 291.826 390.785 290.923Z" fill="#283996"/>
<path d="M473.465 310.182H365.983V374.844H473.465V310.182Z" fill="white" stroke="#263238" stroke-miterlimit="10" stroke-linecap="round" stroke-linejoin="round"/>
<path d="M473.465 310.182H365.983V321.602H473.465V310.182Z" fill="#B8B8B8" stroke="#263238" stroke-miterlimit="10" stroke-linecap="round" stroke-linejoin="round"/>
<path d="M389.591 361.187C398.305 361.187 405.368 354.417 405.368 346.066C405.368 337.715 398.305 330.945 389.591 330.945C380.877 330.945 373.813 337.715 373.813 346.066C373.813 354.417 380.877 361.187 389.591 361.187Z" fill="#283996" stroke="#263238" stroke-miterlimit="10" stroke-linecap="round" stroke-linejoin="round"/>
<path d="M411.259 343.848H464.79" stroke="#263238" stroke-miterlimit="10" stroke-linecap="round" stroke-linejoin="round"/>
<path d="M411.259 350.704H448.286" stroke="#263238" stroke-miterlimit="10" stroke-linecap="round" stroke-linejoin="round"/>
<path d="M589.663 171.392H437.772V249.506H589.663V171.392Z" fill="#B8B8B8" stroke="#263238" stroke-miterlimit="10" stroke-linecap="round" stroke-linejoin="round"/>
<path d="M589.663 171.392H437.772V182.014H589.663V171.392Z" fill="#828282" stroke="#263238" stroke-miterlimit="10" stroke-linecap="round" stroke-linejoin="round"/>
<path d="M471.613 204.133H464.875V215.556H471.613V204.133Z" fill="#283996" stroke="#263238" stroke-miterlimit="10" stroke-linecap="round" stroke-linejoin="round"/>
<path d="M481.717 204.133H474.98V215.556H481.717V204.133Z" fill="#283996" stroke="#263238" stroke-miterlimit="10" stroke-linecap="round" stroke-linejoin="round"/>
<path d="M491.823 204.133H485.086V215.556H491.823V204.133Z" fill="#283996" stroke="#263238" stroke-miterlimit="10" stroke-linecap="round" stroke-linejoin="round"/>
<path d="M501.929 204.133H495.192V215.556H501.929V204.133Z" fill="#283996" stroke="#263238" stroke-miterlimit="10" stroke-linecap="round" stroke-linejoin="round"/>
<path d="M512.035 204.133H505.298V215.556H512.035V204.133Z" fill="#283996" stroke="#263238" stroke-miterlimit="10" stroke-linecap="round" stroke-linejoin="round"/>
<path d="M522.141 204.133H515.404V215.556H522.141V204.133Z" fill="#283996" stroke="#263238" stroke-miterlimit="10" stroke-linecap="round" stroke-linejoin="round"/>
<path d="M532.245 204.133H525.508V215.556H532.245V204.133Z" fill="#283996" stroke="#263238" stroke-miterlimit="10" stroke-linecap="round" stroke-linejoin="round"/>
<path d="M542.351 204.133H535.614V215.556H542.351V204.133Z" fill="#283996" stroke="#263238" stroke-miterlimit="10" stroke-linecap="round" stroke-linejoin="round"/>
<path d="M552.457 204.133H545.72V215.556H552.457V204.133Z" fill="#283996" stroke="#263238" stroke-miterlimit="10" stroke-linecap="round" stroke-linejoin="round"/>
<path d="M562.563 204.133H555.826V215.556H562.563V204.133Z" fill="#283996" stroke="#263238" stroke-miterlimit="10" stroke-linecap="round" stroke-linejoin="round"/>
<path d="M415.747 109.311H371.304V156.534H415.747V109.311Z" fill="white" stroke="#263238" stroke-miterlimit="10"/>
<path d="M415.747 137.47H371.304V156.534H415.747V137.47Z" fill="#D9D9D9" stroke="#263238" stroke-miterlimit="10" stroke-linecap="round" stroke-linejoin="round"/>
<path d="M402.262 91.9539H384.79V109.721H402.262V91.9539Z" fill="white" stroke="#263238" stroke-miterlimit="10"/>
<path d="M396.121 0H390.933V91.3748H396.121V0Z" fill="#263238" stroke="#263238" stroke-miterlimit="10"/>
<path d="M508.765 318.929C506.186 321.368 504.568 324.727 504.476 328.443H533.324C533.229 324.608 531.501 321.159 528.778 318.705C530.296 317.34 531.554 315.289 531.554 312.383C531.554 311.544 530.845 310.863 529.968 310.863C529.091 310.863 528.382 311.544 528.382 312.383C528.382 314.687 527.276 316.046 526.187 316.844C524.044 315.637 521.559 314.932 518.899 314.932C516.117 314.932 513.526 315.702 511.32 317.013C510.171 316.244 508.907 314.841 508.907 312.381C508.907 311.542 508.198 310.861 507.321 310.861C506.444 310.861 505.735 311.542 505.735 312.381C505.738 315.45 507.136 317.569 508.765 318.929Z" fill="#263238"/>
<path d="M550.473 350.731C548.28 348.01 545.396 346.507 543.09 345.683C542.359 342.199 540.808 339.006 538.665 336.256C540.911 335.408 543.628 333.918 545.715 331.327C549.848 326.201 549.897 318.15 549.897 317.809C549.897 316.97 549.189 316.291 548.313 316.291H548.311C547.436 316.291 546.727 316.97 546.725 317.809C546.725 317.882 546.672 325.172 543.206 329.469C541.219 331.935 538.434 333.17 536.466 333.774C535.441 332.778 534.32 331.878 533.127 331.067C533.141 330.989 533.148 330.91 533.159 330.833H504.639C504.652 330.91 504.658 330.989 504.671 331.067C503.394 331.933 502.21 332.91 501.128 333.988C499.182 333.486 495.891 332.272 493.629 329.468C490.164 325.171 490.11 317.882 490.11 317.808C490.108 316.969 489.4 316.289 488.524 316.289H488.522C487.647 316.291 486.938 316.97 486.938 317.808C486.938 318.148 486.986 326.2 491.12 331.325C493.45 334.215 496.559 335.733 498.925 336.522C496.841 339.278 495.357 342.468 494.668 345.935C492.491 346.803 489.939 348.265 487.95 350.731C483.817 355.858 483.769 363.908 483.769 364.248C483.769 365.087 484.48 365.768 485.355 365.768C486.231 365.768 486.94 365.087 486.94 364.248C486.94 364.175 486.979 356.905 490.459 352.59C491.571 351.211 492.935 350.222 494.265 349.506C494.254 349.792 494.219 350.07 494.219 350.358C494.219 352.883 494.313 355.566 494.611 358.256C492.909 359.751 491.106 361.874 490.108 364.707C487.948 370.847 490.646 378.471 490.762 378.792C490.989 379.419 491.602 379.815 492.261 379.815C492.43 379.815 492.606 379.787 492.776 379.731C493.604 379.457 494.045 378.592 493.759 377.799C493.734 377.731 491.301 370.824 493.112 365.677C493.604 364.283 494.359 363.098 495.192 362.104C497.18 372.237 502.965 381.441 518.896 381.441C536.532 381.441 541.563 371.502 542.998 361.585C544.001 362.632 544.941 363.935 545.546 365.513C547.499 370.611 545.258 377.577 545.236 377.647C544.975 378.448 545.439 379.301 546.273 379.553C546.432 379.6 546.592 379.623 546.751 379.623C547.423 379.623 548.048 379.21 548.261 378.561C548.367 378.237 550.852 370.546 548.522 364.464C547.354 361.415 545.257 359.225 543.395 357.767C543.573 355.136 543.574 352.599 543.574 350.355C543.574 349.957 543.533 349.568 543.512 349.174C545.036 349.904 546.667 350.985 547.959 352.587C551.423 356.884 551.477 364.172 551.477 364.247C551.479 365.086 552.188 365.764 553.063 365.764H553.065C553.94 365.764 554.649 365.083 554.649 364.245C554.654 363.908 554.605 355.856 550.473 350.731Z" fill="#263238"/>
<path d="M566.652 311.009C565.951 311.512 565.807 312.463 566.332 313.137C566.857 313.81 567.849 313.947 568.552 313.444C571.113 311.608 572.048 309.267 572.209 307.201C575.791 307.721 579.567 306.952 582.729 304.796L565.456 282.652C562.308 285.021 560.46 288.411 560.038 291.972C557.988 291.624 555.521 291.886 553.093 293.626C552.392 294.129 552.248 295.081 552.773 295.754C553.298 296.427 554.291 296.564 554.993 296.061C556.919 294.681 558.717 294.716 560.035 295.075C560.31 297.441 561.209 299.771 562.801 301.813C564.467 303.948 566.661 305.476 569.079 306.385C569.121 307.726 568.706 309.537 566.652 311.009Z" fill="#263238"/>
<path d="M607.821 303.698C601.325 287.461 589.11 273.95 573.53 265.418C571.328 267.936 569.73 270.817 568.787 273.875C566.733 272.659 563.862 271.466 560.446 271.414C553.688 271.309 546.93 276.094 546.646 276.296C545.945 276.798 545.802 277.75 546.324 278.423L546.326 278.425C546.849 279.096 547.842 279.235 548.543 278.733C548.605 278.689 554.728 274.366 560.395 274.453C563.647 274.503 566.346 275.9 568.029 277.049C567.81 278.432 567.729 279.832 567.765 281.233C567.692 281.27 567.623 281.312 567.55 281.349L584.625 303.24C584.682 303.184 584.745 303.132 584.801 303.074C586.29 303.535 587.816 303.86 589.364 304.046C590.111 305.839 591.065 309.094 590.076 312.507C588.558 317.741 582.499 322.146 582.439 322.19C581.74 322.693 581.595 323.645 582.12 324.316L582.122 324.318C582.647 324.99 583.64 325.126 584.341 324.625C584.625 324.421 591.325 319.563 593.133 313.322C594.153 309.803 593.562 306.508 592.804 304.22C596.355 304.17 599.91 303.4 603.219 301.852C604.488 302.573 606.04 303.266 607.821 303.698Z" fill="#263238"/>
<path d="M671.628 713.427C685.548 713.427 696.832 702.612 696.832 689.271C696.832 675.93 685.548 665.116 671.628 665.116C657.708 665.116 646.423 675.93 646.423 689.271C646.423 702.612 657.708 713.427 671.628 713.427Z" fill="#263238" stroke="#263238" stroke-miterlimit="10" stroke-linecap="round" stroke-linejoin="round"/>
<path d="M671.628 706.797C681.727 706.797 689.914 698.951 689.914 689.271C689.914 679.592 681.727 671.746 671.628 671.746C661.528 671.746 653.341 679.592 653.341 689.271C653.341 698.951 661.528 706.797 671.628 706.797Z" fill="white" stroke="#263238" stroke-miterlimit="10"/>
<path d="M742.76 713.427C756.68 713.427 767.965 702.612 767.965 689.271C767.965 675.93 756.68 665.116 742.76 665.116C728.84 665.116 717.555 675.93 717.555 689.271C717.555 702.612 728.84 713.427 742.76 713.427Z" fill="#263238" stroke="#263238" stroke-miterlimit="10" stroke-linecap="round" stroke-linejoin="round"/>
<path d="M742.76 706.797C752.859 706.797 761.046 698.951 761.046 689.271C761.046 679.592 752.859 671.746 742.76 671.746C732.66 671.746 724.473 679.592 724.473 689.271C724.473 698.951 732.66 706.797 742.76 706.797Z" fill="white" stroke="#263238" stroke-miterlimit="10"/>
<path d="M721.948 389.626L703.71 381.107L641.384 503.666L659.623 512.185L721.948 389.626Z" fill="#263238" stroke="#263238" stroke-miterlimit="10" stroke-linecap="round" stroke-linejoin="round"/>
<path d="M666.307 322.273H617.621V338.741H666.307V322.273Z" fill="#263238" stroke="#263238" stroke-miterlimit="10" stroke-linecap="round" stroke-linejoin="round"/>
<path d="M739.334 345.604H659.625V315.412H739.334C748.033 315.412 755.085 322.17 755.085 330.507C755.085 338.844 748.033 345.604 739.334 345.604Z" fill="#283996" stroke="#263238" stroke-miterlimit="10" stroke-linecap="round" stroke-linejoin="round"/>
<path d="M534.807 246.582C486.443 246.582 447.237 284.156 447.237 330.507C447.237 376.858 486.443 414.433 534.807 414.433C583.17 414.433 622.376 376.858 622.376 330.507C622.376 284.156 583.17 246.582 534.807 246.582ZM534.807 405.443C491.625 405.443 456.619 371.894 456.619 330.509C456.619 289.124 491.625 255.574 534.807 255.574C577.989 255.574 612.995 289.124 612.995 330.509C612.995 371.894 577.99 405.443 534.807 405.443Z" fill="#283996" stroke="#263238" stroke-miterlimit="10" stroke-linecap="round" stroke-linejoin="round"/>
<path d="M699.876 446.036L670.673 432.397L725.878 323.825C729.809 316.096 739.531 312.884 747.596 316.651C755.66 320.418 759.012 329.735 755.081 337.464L699.876 446.036Z" fill="#283996" stroke="#263238" stroke-miterlimit="10" stroke-linecap="round" stroke-linejoin="round"/>
<path d="M739.399 340.895C743.73 340.895 747.24 337.53 747.24 333.38C747.24 329.23 743.73 325.865 739.399 325.865C735.069 325.865 731.558 329.23 731.558 333.38C731.558 337.53 735.069 340.895 739.399 340.895Z" fill="white" stroke="#263238" stroke-miterlimit="10"/>
<path d="M767.233 564.402L713.577 618.126L639.717 516.455C634.385 509.115 635.397 499.15 642.108 492.933C648.85 486.687 659.336 486.082 666.811 491.507L767.233 564.402Z" fill="#283996" stroke="#263238" stroke-miterlimit="10" stroke-linecap="round" stroke-linejoin="round"/>
<path d="M657.625 497.403C653.555 495.985 649.056 497.996 647.576 501.896C646.095 505.797 648.195 510.109 652.264 511.527C656.334 512.945 660.833 510.934 662.313 507.034C663.794 503.135 661.695 498.823 657.625 497.403Z" fill="white" stroke="#263238" stroke-miterlimit="10"/>
<path d="M726.326 528.772L629.621 695.177H774.126V528.772H726.326Z" fill="#283996" stroke="#263238" stroke-miterlimit="10" stroke-linecap="round" stroke-linejoin="round"/>
<path d="M717.639 612.03C717.639 606.941 721.944 602.815 727.253 602.815H774.126V528.772H747.616L662.258 675.651H774.126V621.244H727.253C721.944 621.244 717.639 617.118 717.639 612.03Z" fill="white" stroke="#263238" stroke-miterlimit="10"/>
</g>
<defs>
<clipPath id="clip0_2_20">
<rect width="793" height="760" fill="white"/>
</clipPath>
</defs>
</svg>
